<svg  xmlns="http://www.w3.org/2000/svg" xmlns:xlink="http://www.w3.org/1999/xlink">
    <symbol id='inst'><path d="M13.0029 5.8467C9.59691 5.8467 6.84962 8.594 6.84962 12C6.84962 15.406 9.59691 18.1533 13.0029 18.1533C16.4089 18.1533 19.1562 15.406 19.1562 12C19.1562 8.594 16.4089 5.8467 13.0029 5.8467ZM13.0029 16.0004C10.8019 16.0004 9.00247 14.2064 9.00247 12C9.00247 9.7936 10.7965 7.99955 13.0029 7.99955C15.2093 7.99955 17.0034 9.7936 17.0034 12C17.0034 14.2064 15.204 16.0004 13.0029 16.0004ZM20.8431 5.595C20.8431 6.39295 20.2005 7.03024 19.4079 7.03024C18.61 7.03024 17.9727 6.38759 17.9727 5.595C17.9727 4.80241 18.6153 4.15977 19.4079 4.15977C20.2005 4.15977 20.8431 4.80241 20.8431 5.595ZM24.9186 7.05166C24.8275 5.12909 24.3884 3.42608 22.9799 2.02298C21.5768 0.619882 19.8738 0.180743 17.9513 0.0843468C15.9698 -0.0281156 10.0307 -0.0281156 8.04922 0.0843468C6.132 0.175388 4.429 0.614526 3.02054 2.01763C1.61209 3.42073 1.1783 5.12373 1.08191 7.0463C0.969443 9.02778 0.969443 14.9669 1.08191 16.9483C1.17295 18.8709 1.61209 20.5739 3.02054 21.977C4.429 23.3801 6.12665 23.8193 8.04922 23.9157C10.0307 24.0281 15.9698 24.0281 17.9513 23.9157C19.8738 23.8246 21.5768 23.3855 22.9799 21.977C24.383 20.5739 24.8222 18.8709 24.9186 16.9483C25.031 14.9669 25.031 9.03314 24.9186 7.05166ZM22.3587 19.0744C21.941 20.1241 21.1323 20.9327 20.0773 21.3558C18.4975 21.9824 14.7488 21.8378 13.0029 21.8378C11.2571 21.8378 7.50297 21.977 5.9285 21.3558C4.87885 20.9381 4.07019 20.1294 3.64712 19.0744C3.02054 17.4946 3.16514 13.7458 3.16514 12C3.16514 10.2542 3.0259 6.50006 3.64712 4.92558C4.06484 3.87593 4.87349 3.06728 5.9285 2.6442C7.50833 2.01763 11.2571 2.16222 13.0029 2.16222C14.7488 2.16222 18.5029 2.02298 20.0773 2.6442C21.127 3.06192 21.9356 3.87058 22.3587 4.92558C22.9853 6.50541 22.8407 10.2542 22.8407 12C22.8407 13.7458 22.9853 17.4999 22.3587 19.0744Z"/></symbol>
    <symbol id='twitter' ><path  d="M17.9441 4.0482C17.9568 4.22586 17.9568 4.40355 17.9568 4.58121C17.9568 9.99996 13.8325 16.2436 6.29441 16.2436C3.97207 16.2436 1.81473 15.571 0 14.4036C0.329961 14.4416 0.647187 14.4543 0.989844 14.4543C2.90605 14.4543 4.67004 13.8071 6.07867 12.703C4.27664 12.665 2.76648 11.4848 2.24617 9.86039C2.5 9.89844 2.75379 9.92383 3.02031 9.92383C3.38832 9.92383 3.75637 9.87305 4.09898 9.78426C2.22082 9.40351 0.812148 7.75379 0.812148 5.76141V5.71066C1.35781 6.01523 1.99238 6.20559 2.66492 6.23094C1.56086 5.49488 0.837539 4.23855 0.837539 2.81723C0.837539 2.05582 1.04055 1.35785 1.3959 0.748711C3.41367 3.23602 6.44668 4.86035 9.84766 5.03805C9.78422 4.73348 9.74613 4.41625 9.74613 4.09898C9.74613 1.84008 11.5736 0 13.8451 0C15.0253 0 16.0913 0.494922 16.84 1.29441C17.7664 1.11676 18.6547 0.774102 19.4416 0.30457C19.137 1.25637 18.4898 2.05586 17.6395 2.56344C18.4644 2.47465 19.2639 2.24617 19.9999 1.92895C19.4416 2.74109 18.7436 3.46441 17.9441 4.0482Z"/></symbol>
    <symbol id='facebook'><path d="M12.5845 13.5L13.251 9.15656H9.08338V6.33797C9.08338 5.14969 9.66557 3.99141 11.5321 3.99141H13.4268V0.293438C13.4268 0.293438 11.7074 0 10.0635 0C6.63135 0 4.38791 2.08031 4.38791 5.84625V9.15656H0.572754V13.5H4.38791V24H9.08338V13.5H12.5845Z"/></symbol>
    <symbol id='linkedin'><path d="M5.37226 24H0.396437V7.97643H5.37226V24ZM2.88167 5.79066C1.29056 5.79066 0 4.47278 0 2.88167C1.13885e-08 2.1174 0.303604 1.38444 0.844022 0.844022C1.38444 0.303604 2.1174 0 2.88167 0C3.64594 0 4.3789 0.303604 4.91932 0.844022C5.45974 1.38444 5.76334 2.1174 5.76334 2.88167C5.76334 4.47278 4.47224 5.79066 2.88167 5.79066ZM23.9952 24H19.0301V16.1998C19.0301 14.3409 18.9926 11.9569 16.443 11.9569C13.856 11.9569 13.4596 13.9766 13.4596 16.0659V24H8.48912V7.97643H13.2614V10.1622H13.331C13.9953 8.90323 15.618 7.57463 18.039 7.57463C23.0748 7.57463 24.0005 10.8908 24.0005 15.198V24H23.9952Z"/></symbol>
</svg>